<?xml version="1.0" encoding="UTF-8"?>
<!DOCTYPE svg PUBLIC "-//W3C//DTD SVG 1.1//EN" "http://www.w3.org/Graphics/SVG/1.1/DTD/svg11.dtd">
<!-- Creator: CorelDRAW 2021 (64-Bit) -->
<svg xmlns="http://www.w3.org/2000/svg" xml:space="preserve" width="25.3998mm" height="12.2766mm" version="1.1" style="shape-rendering:geometricPrecision; text-rendering:geometricPrecision; image-rendering:optimizeQuality; fill-rule:evenodd; clip-rule:evenodd"
viewBox="0 0 2539.98 1227.66"
 xmlns:xlink="http://www.w3.org/1999/xlink"
 xmlns:xodm="http://www.corel.com/coreldraw/odm/2003">
 <defs>
  <style type="text/css">
   <![CDATA[
    .fil1 {fill:#FCFEFF}
    .fil2 {fill:#FDEC02}
    .fil0 {fill:url(#id0)}
   ]]>
  </style>
  <linearGradient id="id0" gradientUnits="userSpaceOnUse" x1="2539.11" y1="582.5" x2="0.89" y2="653.64">
   <stop offset="0" style="stop-opacity:1; stop-color:#5D5DBA"/>
   <stop offset="1" style="stop-opacity:1; stop-color:#2A2A54"/>
  </linearGradient>
 </defs>
 <g id="Layer_x0020_1">
  <metadata id="CorelCorpID_0Corel-Layer"/>
  <g id="_2698966799648">
   <path class="fil0" d="M2039.71 702.71c67.66,0 168.43,-13.6 193.83,42.76 19.41,43.08 -16.91,153.88 -28.56,199.5 -16.41,64.28 -32.64,133.96 -72.76,165.75 -56.75,44.95 -120.77,34.03 -204.93,33.76l112.42 -441.77zm-1622.78 -399.35c51.38,0 127.83,12.8 140.04,-34.8 13.4,-52.24 -44.81,-43.5 -85.89,-43.57 -12.42,-0.02 -28.92,-1.8 -40.35,2.68l-13.8 75.69zm-39.03 205.79c66.2,0 141.46,13.45 154.05,-35.87 9.51,-37.24 -17.22,-42.32 -48.85,-42.55 -21.69,-0.15 -72.46,-2.35 -91.04,1.33l-14.16 77.09zm1780.98 -97.47l86.69 0.31 -7.98 -177.88c-9.23,4.91 -34.16,72.71 -40.03,86.56 -10.64,25.08 -32.3,67.14 -38.68,91.01zm-1613.04 336.27c-64.81,9.67 -70.45,97.28 -90.4,176.22 -22.88,90.53 -67.11,191.03 29.97,175.66 60.93,-9.65 70.48,-108.72 87.74,-177.14 22.65,-89.74 66.38,-188.71 -27.31,-174.74zm1215.22 240.63l72.69 0.54 13.54 -195.07 -86.23 194.53zm239.57 111.45c112.41,7.87 113.37,-34.72 143.67,-161.9 9.78,-41.07 23,-83.33 30.26,-124.46 4.82,-27.33 6.39,-49.55 -15.66,-59.42 -16.99,-7.59 -50.63,-7.4 -70.15,-4.73l-88.12 350.51zm319.47 -110.8l70.08 -3.17c5.51,-9.19 13.03,-163.55 13.8,-187.84l-44.24 95.59c-7.6,17.11 -38.5,82.63 -39.64,95.42zm-642.64 -985l50.4 0c66.66,3.31 131.32,20.16 177.8,55.27 41.01,31 90.23,100.19 91.22,144.38 9.63,-7.05 68.14,-128.84 78.54,-148.08 4.64,-8.59 3.87,-6.87 10.02,-13.84 6.21,-7.03 3.49,-4.62 10.38,-10.5 17.43,-14.86 36.72,-21.27 68.27,-21.27l197.06 0c35.13,0 57.27,7.79 75.5,25.97 21.87,21.83 21.86,36.99 27.32,74.05 8.87,60.24 15.33,115.26 23.85,175.84l36.64 267.38c4.27,29.27 9.88,57.2 9.88,88.47 0,20.72 -10.91,4.52 0.72,34.89 4.19,10.92 6.23,24.41 4.06,38.28l-4.72 135.49c0.09,19.07 -2.95,24.32 -3.17,41.53 -0.18,14.79 0.66,30.2 0.22,44.91 -0.48,15.85 -3.23,22.43 -3.13,41.58l-5.11 134.95c-1.96,14.28 0.52,29.26 -1.47,43.22 -3.59,25.24 -17.71,43.37 -35.93,56.52 -16.33,11.79 -54.93,18.63 -70.91,18.63l-2257.34 0c-46.1,0 -91.18,-22.78 -114.31,-46.82 -80.18,-83.32 -29.28,-214.32 -2.74,-320.29 23.49,-93.77 26.62,-104.2 72.26,-172.23 -11.8,-17.58 -23.88,-26.22 -23.88,-56.61 0,-22.79 25.95,-152.16 31.09,-177.56l65.69 -345.65c7.97,-39.04 13.06,-79.59 58.72,-96.35 30.91,-11.35 246.96,-6.2 295.37,-6.2 67.63,0 123.87,2.33 182.55,23.42 15.09,5.43 32.89,18.22 44.38,21.28 15.7,-29.63 44.21,-44.7 89.57,-44.7l158.25 0c41,0 69.38,11.91 83.61,38.74 15.49,-10.36 15.93,-19.16 36.72,-28.91 34.9,-16.37 162.29,-9.83 211.11,-9.83 44.59,0 94.45,22.51 95.55,71.52 32.4,-21.65 61.51,-39.82 101.87,-53.29 39.7,-13.26 86.37,-21.89 134.09,-24.19zm-1133.14 696.76c174.15,-25.57 113.06,136.01 92.09,219.04 -12.37,48.94 -22.4,102.42 -43.29,144.51 -19.17,38.6 -51.32,74.59 -105.12,82.81 -177.59,27.16 -117.77,-133.48 -95.82,-220.52 27.31,-108.22 39.6,-209.32 152.14,-225.84zm1295.79 1.79l57.46 -0.07c3.92,21.5 -13.96,425.7 -15.69,441.86l-57.92 0.01 6.85 -111.05 -89.08 -0.43 -50.04 111.64 -57.38 -0.57 205.8 -441.39zm352.23 441.32c9.94,-31.1 35.92,-78.44 50.77,-110.34 17.44,-37.45 33.8,-75.86 51.92,-112.21 28.11,-56.41 51.43,-114.54 78.56,-168.88 26.76,-53.6 2.28,-51.67 82.77,-49.72l-17.7 441.8 -57.35 -0.05 6.02 -111.28 -87.83 0.02c-12.6,19.28 -40.3,104.84 -54.8,111.31l-52.36 -0.65zm-777.34 -163.62c-13.81,98.26 -66.29,186.45 -181.47,167.16 -107.85,-18.06 -49.2,-163.97 -28.06,-249.44 24.4,-98.66 44.68,-188.97 150.84,-198.53 121.14,-10.91 112.29,65.62 94.9,139.76 -6.38,27.17 3.86,21.54 -62.16,21.54 -0.6,-24.44 21.98,-68.94 12.81,-95.9 -8.97,-26.4 -62.66,-21.74 -80.99,-5.15 -34.96,31.63 -45.76,108.59 -59.39,164.16 -13.8,56.3 -54.98,161.85 -6.3,174.81 85.86,22.85 80.58,-69.38 102.71,-118.19l57.11 -0.22zm-1087.72 0.5c-6.89,44.25 -24,90.07 -46.64,120.47 -22.75,30.53 -61.66,51.78 -120.22,47.72 -121.2,-8.4 -69.69,-142.72 -48.83,-225.48 23.11,-91.69 38.31,-186.83 118.12,-215.87 43.94,-15.99 105.35,-13.09 130.85,17.54 23.26,27.94 11.27,105.96 -4.07,135.61l-54.75 0c-1.76,-23.32 21.69,-69.57 12.53,-95.35 -9.58,-26.99 -62.11,-21.81 -80.93,-6.4 -32.49,26.62 -46.89,114 -60.15,166.57 -7.74,30.68 -15.7,59.94 -22.74,90.56 -7.18,31.31 -17.66,75.63 20.06,83.32 38.75,7.88 62.86,-10.22 74.69,-36.58l19.28 -64.05c5.76,-24.21 1.75,-18.65 62.8,-18.06zm425.6 -278.27l40.89 -0.2 52.82 290.53 73.87 -290.25 48.72 -0.08c0.37,16.45 -20.95,90.89 -26.17,112 -9.01,36.4 -18.33,72.57 -27.65,109.53 -11.47,45.45 -45.12,187.31 -56.3,220.51l-38.72 0.1 -52.43 -298.24 -75.87 298.14 -51.45 -0.24 112.29 -441.8zm177.64 442.04c1.04,-19.91 105.44,-430.56 111.62,-442.04l169.66 0.28 -12.16 45.48c-124.6,0.08 -105.92,-11.22 -117.59,35.2 -3.28,13.06 -6.45,25.59 -9.61,38.1 -6,23.74 -13.22,48.75 -17.95,72.88l88.1 0.48c-2.04,9.83 -4.37,19.13 -6.77,28.91 -3.72,15.13 -2.92,14.71 -19.47,14.75 -77.38,0.15 -72.38,-7.26 -78.45,18.6 -8.48,36.13 -32.04,119.74 -35.26,143.14l110.55 0.59 -12.09 43.63 -170.58 0zm577.35 -396.29c0.97,-11.42 5.91,-45.75 17.23,-45.75l202.42 0.45 -11.59 45.3 -72.48 0.8 -100.43 395.49 -61.09 -0.34 99.39 -395.76 -73.45 -0.19zm364.67 -116.26c45.05,-89.36 92.14,-182.04 138.8,-270.95 24.03,-45.8 46.06,-89.88 70.03,-135.64 12.5,-23.85 23.99,-45.9 35.32,-69.12 5.54,-11.37 27.45,-62.19 38.44,-62.19 54.87,-0.02 175.72,-2.25 223.09,0.53l73.34 538.5 -194.58 -0.35 -4.81 -100.45c-15.82,-5.09 -111.87,-2.12 -135.86,-2.12 -18.37,0 -22.64,28.88 -31.75,50.02 -7.55,17.54 -16.32,34.67 -22.26,52.52l-189.76 -0.75zm-150.88 -59.19c-9.07,6.65 -16.75,16.52 -27.86,25.67 -8.57,7.07 -19.92,14.64 -32.74,20.88 -24.29,11.82 -55.21,19.45 -86.23,21.31 -64.79,3.9 -126.41,-13.11 -161.59,-48.2 -19.67,-19.61 -31.01,-31.97 -43.34,-64.06 -10.41,-27.1 -14.69,-57.7 -14.28,-89.35 2.16,-167.56 95.83,-324.67 288.12,-349.92 115.56,-15.18 253.29,7.9 276.12,145.04l-189.08 62.67c-0.16,-88.17 -78.8,-72.65 -108.77,-56.01 -35.1,19.5 -53.47,71.14 -63.22,121.89 -10.28,53.48 -14.42,117.17 36.2,134.7 50.73,17.56 118.98,-0.58 122.84,-51.28l-89.78 -0.15 22.46 -116.73 249.15 0 -50.26 269.95c-8.55,45.4 11.75,34.16 -132.31,32.87l4.57 -59.28zm-1447.46 -478.71c75.58,0 151.16,0 226.74,0 66.81,0 145.48,-4.99 202.43,20.84 83.51,37.87 75.32,158.46 -7.42,217.81 -26,18.65 -49.54,20.35 -80.98,30.06 35.96,7.17 62.73,11.11 84.53,33.1 54.07,54.53 25.7,180.15 -78.96,219.13 -63.18,23.53 -143.89,18.08 -215.15,18.08 -77.92,0 -155.84,0 -234.1,-0.07l102.91 -538.95zm1051.62 185.23c-31.66,162.46 -39.81,342.29 -292.54,360.63 -143.19,10.39 -260.4,-28.25 -259.38,-174.06 0.4,-57.47 20.01,-132.53 30.31,-188.8 10.71,-58.59 21.08,-125.79 35.16,-182.97l190.03 -0.03c-0.79,23.85 -35.13,189.95 -42.37,228.47 -12.11,64.43 -56.13,189.16 50.41,174.7 74.23,-10.09 76.33,-104.49 90.25,-177.91 14.02,-73.9 26.18,-151.85 43.08,-225.23l189.42 0.02 -34.37 185.18z"/>
   <path class="fil1" d="M377.9 509.15l14.16 -77.09c18.58,-3.68 69.35,-1.48 91.04,-1.33 31.63,0.23 58.36,5.31 48.85,42.55 -12.59,49.32 -87.85,35.87 -154.05,35.87zm39.03 -205.79l13.8 -75.69c11.43,-4.48 27.93,-2.7 40.35,-2.68 41.08,0.07 99.29,-8.67 85.89,43.57 -12.21,47.6 -88.66,34.8 -140.04,34.8zm-245.64 329.89c78.26,0.07 156.18,0.07 234.1,0.07 71.26,0 151.97,5.45 215.15,-18.08 104.66,-38.98 133.03,-164.6 78.96,-219.13 -21.8,-21.99 -48.57,-25.93 -84.53,-33.1 31.44,-9.71 54.98,-11.41 80.98,-30.06 82.74,-59.35 90.93,-179.94 7.42,-217.81 -56.95,-25.83 -135.62,-20.84 -202.43,-20.84 -75.58,0 -151.16,0 -226.74,0l-102.91 538.95z"/>
   <path class="fil1" d="M1721.66 573.01l-4.57 59.28c144.06,1.29 123.76,12.53 132.31,-32.87l50.26 -269.95 -249.15 0 -22.46 116.73 89.78 0.15c-3.86,50.7 -72.11,68.84 -122.84,51.28 -50.62,-17.53 -46.48,-81.22 -36.2,-134.7 9.75,-50.75 28.12,-102.39 63.22,-121.89 29.97,-16.64 108.61,-32.16 108.77,56.01l189.08 -62.67c-22.83,-137.14 -160.56,-160.22 -276.12,-145.04 -192.29,25.25 -285.96,182.36 -288.12,349.92 -0.41,31.65 3.87,62.25 14.28,89.35 12.33,32.09 23.67,44.45 43.34,64.06 35.18,35.09 96.8,52.1 161.59,48.2 31.02,-1.86 61.94,-9.49 86.23,-21.31 12.82,-6.24 24.17,-13.81 32.74,-20.88 11.11,-9.15 18.79,-19.02 27.86,-25.67z"/>
   <path class="fil1" d="M1360.19 94.35l-189.42 -0.02c-16.9,73.38 -29.06,151.33 -43.08,225.23 -13.92,73.42 -16.02,167.82 -90.25,177.91 -106.54,14.46 -62.52,-110.27 -50.41,-174.7 7.24,-38.52 41.58,-204.62 42.37,-228.47l-190.03 0.03c-14.08,57.18 -24.45,124.38 -35.16,182.97 -10.3,56.27 -29.91,131.33 -30.31,188.8 -1.02,145.81 116.19,184.45 259.38,174.06 252.73,-18.34 260.88,-198.17 292.54,-360.63l34.37 -185.18z"/>
   <path class="fil1" d="M2158.88 411.68c6.38,-23.87 28.04,-65.93 38.68,-91.01 5.87,-13.85 30.8,-81.65 40.03,-86.56l7.98 177.88 -86.69 -0.31zm-286.34 220.52l189.76 0.75c5.94,-17.85 14.71,-34.98 22.26,-52.52 9.11,-21.14 13.38,-50.02 31.75,-50.02 23.99,0 120.04,-2.97 135.86,2.12l4.81 100.45 194.58 0.35 -73.34 -538.5c-47.37,-2.78 -168.22,-0.55 -223.09,-0.53 -10.99,0 -32.9,50.82 -38.44,62.19 -11.33,23.22 -22.82,45.27 -35.32,69.12 -23.97,45.76 -46,89.84 -70.03,135.64 -46.66,88.91 -93.75,181.59 -138.8,270.95z"/>
   <path class="fil2" d="M2000.63 1100.03l88.12 -350.51c19.52,-2.67 53.16,-2.86 70.15,4.73 22.05,9.87 20.48,32.09 15.66,59.42 -7.26,41.13 -20.48,83.39 -30.26,124.46 -30.3,127.18 -31.26,169.77 -143.67,161.9zm-73.34 44.45c84.16,0.27 148.18,11.19 204.93,-33.76 40.12,-31.79 56.35,-101.47 72.76,-165.75 11.65,-45.62 47.97,-156.42 28.56,-199.5 -25.4,-56.36 -126.17,-42.76 -193.83,-42.76l-112.42 441.77z"/>
   <path class="fil2" d="M640.59 1144.51l51.45 0.24 75.87 -298.14 52.43 298.24 38.72 -0.1c11.18,-33.2 44.83,-175.06 56.3,-220.51 9.32,-36.96 18.64,-73.13 27.65,-109.53 5.22,-21.11 26.54,-95.55 26.17,-112l-48.72 0.08 -73.87 290.25 -52.82 -290.53 -40.89 0.2 -112.29 441.8z"/>
   <path class="fil2" d="M545.84 747.95c93.69,-13.97 49.96,85 27.31,174.74 -17.26,68.42 -26.81,167.49 -87.74,177.14 -97.08,15.37 -52.85,-85.13 -29.97,-175.66 19.95,-78.94 25.59,-166.55 90.4,-176.22zm-1.52 -46.96c-112.54,16.52 -124.83,117.62 -152.14,225.84 -21.95,87.04 -81.77,247.68 95.82,220.52 53.8,-8.22 85.95,-44.21 105.12,-82.81 20.89,-42.09 30.92,-95.57 43.29,-144.51 20.97,-83.03 82.06,-244.61 -92.09,-219.04z"/>
   <path class="fil2" d="M1415 980.48l-57.11 0.22c-22.13,48.81 -16.85,141.04 -102.71,118.19 -48.68,-12.96 -7.5,-118.51 6.3,-174.81 13.63,-55.57 24.43,-132.53 59.39,-164.16 18.33,-16.59 72.02,-21.25 80.99,5.15 9.17,26.96 -13.41,71.46 -12.81,95.9 66.02,0 55.78,5.63 62.16,-21.54 17.39,-74.14 26.24,-150.67 -94.9,-139.76 -106.16,9.56 -126.44,99.87 -150.84,198.53 -21.14,85.47 -79.79,231.38 28.06,249.44 115.18,19.29 167.66,-68.9 181.47,-167.16z"/>
   <path class="fil2" d="M327.28 980.98c-61.05,-0.59 -57.04,-6.15 -62.8,18.06l-19.28 64.05c-11.83,26.36 -35.94,44.46 -74.69,36.58 -37.72,-7.69 -27.24,-52.01 -20.06,-83.32 7.04,-30.62 15,-59.88 22.74,-90.56 13.26,-52.57 27.66,-139.95 60.15,-166.57 18.82,-15.41 71.35,-20.59 80.93,6.4 9.16,25.78 -14.29,72.03 -12.53,95.35l54.75 0c15.34,-29.65 27.33,-107.67 4.07,-135.61 -25.5,-30.63 -86.91,-33.53 -130.85,-17.54 -79.81,29.04 -95.01,124.18 -118.12,215.87 -20.86,82.76 -72.37,217.08 48.83,225.48 58.56,4.06 97.47,-17.19 120.22,-47.72 22.64,-30.4 39.75,-76.22 46.64,-120.47z"/>
   <path class="fil2" d="M1847.29 794.05l-13.54 195.07 -72.69 -0.54 86.23 -194.53zm-212.98 350.12l57.38 0.57 50.04 -111.64 89.08 0.43 -6.85 111.05 57.92 -0.01c1.73,-16.16 19.61,-420.36 15.69,-441.86l-57.46 0.07 -205.8 441.39z"/>
   <path class="fil2" d="M2320.1 989.23c1.14,-12.79 32.04,-78.31 39.64,-95.42l44.24 -95.59c-0.77,24.29 -8.29,178.65 -13.8,187.84l-70.08 3.17zm-127.76 154.87l52.36 0.65c14.5,-6.47 42.2,-92.03 54.8,-111.31l87.83 -0.02 -6.02 111.28 57.35 0.05 17.7 -441.8c-80.49,-1.95 -56.01,-3.88 -82.77,49.72 -27.13,54.34 -50.45,112.47 -78.56,168.88 -18.12,36.35 -34.48,74.76 -51.92,112.21 -14.85,31.9 -40.83,79.24 -50.77,110.34z"/>
   <path class="fil2" d="M930.52 1144.75l170.58 0 12.09 -43.63 -110.55 -0.59c3.22,-23.4 26.78,-107.01 35.26,-143.14 6.07,-25.86 1.07,-18.45 78.45,-18.6 16.55,-0.04 15.75,0.38 19.47,-14.75 2.4,-9.78 4.73,-19.08 6.77,-28.91l-88.1 -0.48c4.73,-24.13 11.95,-49.14 17.95,-72.88 3.16,-12.51 6.33,-25.04 9.61,-38.1 11.67,-46.42 -7.01,-35.12 117.59,-35.2l12.16 -45.48 -169.66 -0.28c-6.18,11.48 -110.58,422.13 -111.62,442.04z"/>
   <path class="fil2" d="M1507.87 748.46l73.45 0.19 -99.39 395.76 61.09 0.34 100.43 -395.49 72.48 -0.8 11.59 -45.3 -202.42 -0.45c-11.32,0 -16.26,34.33 -17.23,45.75z"/>
  </g>
 </g>
</svg>
