<?xml version="1.0" encoding="UTF-8"?>
<!DOCTYPE svg PUBLIC "-//W3C//DTD SVG 1.1//EN" "http://www.w3.org/Graphics/SVG/1.1/DTD/svg11.dtd">
<!-- Creator: CorelDRAW 2021 (64-Bit) -->
<svg xmlns="http://www.w3.org/2000/svg" xml:space="preserve" width="2.5398mm" height="2.5398mm" version="1.1" style="shape-rendering:geometricPrecision; text-rendering:geometricPrecision; image-rendering:optimizeQuality; fill-rule:evenodd; clip-rule:evenodd"
viewBox="0 0 253.98 253.98"
 xmlns:xlink="http://www.w3.org/1999/xlink"
 xmlns:xodm="http://www.corel.com/coreldraw/odm/2003">
 <defs>
  <style type="text/css">
   <![CDATA[
    .fil7 {fill:#5F6971}
    .fil3 {fill:#75A5EC}
    .fil0 {fill:#78818E}
    .fil5 {fill:#9AC5FD}
    .fil6 {fill:#A1AEBA}
    .fil2 {fill:#C5C5C5}
    .fil4 {fill:#D8D8D8}
    .fil1 {fill:#E8E8E8}
    .fil8 {fill:white}
   ]]>
  </style>
 </defs>
 <g id="Layer_x0020_1">
  <metadata id="CorelCorpID_0Corel-Layer"/>
  <g id="_2102762068096">
   <path class="fil0" d="M125.36 222.12c-4.76,-1.26 -11.16,-6.49 -15.58,-7.98 -2.79,-1.16 -13.41,-6.78 -15.53,-8.32l-1.86 -1.17 -14.2 -7.72c-4.15,-1.94 -14.94,-7.05 -18.5,-9.92 -1.05,-16.07 2.61,-22.68 -3.81,-20.76l-40.22 21.43c-1.01,1.72 -0.06,1.45 2.08,2.47 14.81,7 37.51,20.74 52.71,28.14 12.65,6.16 28.99,16.06 41.95,22.46 4.17,2.07 10.46,5.26 14.31,7.72 4.13,-1.01 11.05,-5.58 14.57,-7.37l97.74 -52.61 -43.55 -23.92c-1.1,1.3 -0.29,-0.15 -0.84,1.63 -0.31,1.01 -0.1,0.16 -0.25,1.2l-0.15 19.91c-1.8,1.26 -6.43,3.48 -8.68,4.6 -2.57,1.26 -5.95,3.27 -8.5,4.67l-34.57 18.48c-4.64,2.51 -15.18,9.59 -17.12,7.06z"/>
   <path class="fil1" d="M106.82 140.51c3.02,1.12 11.34,5.47 13.4,7.33l0.04 13.87 -13.38 -6.86 -0.06 -14.34zm-20.23 -10.88l13.15 6.81c0.98,4.02 0.64,10.16 0.24,14.4l-13.29 -6.84 -0.1 -14.37zm20.22 -10.82l13.36 6.93 0.11 14.3 -13.34 -6.87 -0.13 -14.36zm-40.45 -0.01l13.44 6.91 0.11 14.35 -13.38 -6.93 -0.17 -14.33zm20.21 -10.76l13.48 6.83 0.11 14.4 -13.41 -6.85 -0.18 -14.38zm20.22 3.38l0.01 -14.22 13.36 6.9 0.16 14.35 -13.53 -7.03zm-40.43 0l-0.01 -14.24 13.44 6.91 0.16 14.31 -13.59 -6.98zm20.22 -12.22l0.01 -12.81 13.46 6.98 0.09 14.21c-2.67,-0.9 -13.56,-5.74 -13.56,-8.38zm20.5 -23.75l13.2 7.33 -0.12 14.2 -13.36 -7.26 0.28 -14.27zm-40.43 -0.04l13.26 7.37 -0.12 14.16 -13.46 -7.02 0.32 -14.51zm20.14 -10.79l13.35 7.42 -0.15 14.06 -13.42 -6.98 0.22 -14.5zm-20.36 -10.88l13.47 6.75 -0.15 14.78 -13.36 -6.99 0.04 -14.54zm-7.42 97.21c2.84,-1.07 5.35,-3.76 8.34,-2.97 2.08,0.56 45.71,25.28 53.08,28.14 1.19,1.56 4.44,2.95 6.84,3.52l-0.26 -108.29 -49.45 -26.32c-2.35,-1.3 -14.08,-8.08 -16.79,-8.72l0.54 -1.39c-2.93,0.65 -1.95,2.83 -1.88,6.15 0.51,25.26 0.02,55.21 0.02,80.87l-0.44 29.01z"/>
   <path class="fil2" d="M147.24 140.59l-0.1 14.23 -13.47 6.89 -0.01 -13.87 13.58 -7.25zm20.19 -10.92l-0.11 14.33 -13.29 6.86c-0.41,-3.95 -0.65,-10.67 0.22,-14.42l13.18 -6.77zm20.15 -10.84l-0.15 14.38 -13.35 6.87 0.14 -14.4 13.36 -6.85zm-40.36 0.01l-0.16 14.37 -13.43 6.88 0.13 -14.4 13.46 -6.85zm20.22 -10.76l0.07 14.13 -13.69 7.06 0.06 -5.43 0.08 -8.93 13.48 -6.83zm20.14 -10.9l-0.08 14.02c-1.43,1.22 -11.22,6.5 -13.43,7.25l0.15 -14.32 13.36 -6.95zm-40.34 -0.02l-0.12 14.04c-1.34,1.16 -11.34,6.57 -13.5,7.28l0.15 -14.36 13.47 -6.96zm20.22 -10.84l-0.08 14.3 -13.5 7.03 -0.01 -2.76 0 -1.27 0 -3.16 -0.03 -3.79 0.09 -3.33 13.53 -7.02zm-33.79 10.43c-0.04,-2.98 0.01,-5.95 -0.04,-8.93 -0.13,-7.04 -1.29,-4.69 13.57,-12.31l-0.06 14.42 -13.47 6.82zm53.92 -21.17l-0.02 14.35 -13.46 6.78 -0.04 -14.16 13.52 -6.97zm-20.15 -10.8l-0.05 14.28 -13.5 6.83 -0.12 -14.11 13.67 -7zm20.13 -10.89l-0.08 14.34 -13.39 6.86 0.17 -14.39 13.3 -6.81zm-60.56 17.46l0.26 108.29 -0.24 0.19c2.66,-0.76 27.92,-14.88 32.84,-17.44 4.69,-2.45 29.86,-17.05 34.23,-17.41 0.14,3.73 -0.7,16.97 0.72,19.09l-0.3 -19.45c-0.09,-0.19 -0.15,-0.42 -0.19,-0.59 -0.67,-2.91 -0.31,-3.25 -0.26,-6.3 0.04,-2.3 0,-4.64 0,-6.95 -0.01,-15.66 -0.61,-86.84 0.13,-95.05 -6.55,2.73 -40.88,21.92 -50.64,27l-16.55 8.62z"/>
   <path class="fil3" d="M127.03 179.83l-0.12 41.92c-0.96,0.98 0.24,0.82 -1.55,0.37 1.94,2.53 12.48,-4.55 17.12,-7.06l34.57 -18.48c2.55,-1.4 5.93,-3.41 8.5,-4.67 2.25,-1.12 6.88,-3.34 8.68,-4.6l0.15 -19.91c0.15,-1.04 -0.06,-0.19 0.25,-1.2 0.55,-1.78 -0.26,-0.33 0.84,-1.63l-0.65 -0.5c-1.42,-2.12 -0.58,-15.36 -0.72,-19.09 -4.37,0.36 -29.54,14.96 -34.23,17.41 -4.92,2.56 -30.18,16.68 -32.84,17.44z"/>
   <path class="fil1" d="M81.21 38.49c-0.75,1.43 -0.71,1.34 1.11,2.41l20.7 10.89c2.35,1.34 22.35,12.26 23.56,12.45 1.99,0.31 4.54,-1.76 6.34,-2.76 5.6,-3.11 38.38,-19.56 40.76,-22.58 -7.54,-3.65 -15.59,-8.04 -22.91,-12.12 -2.9,-1.61 -21.73,-12.08 -23.25,-12.27 -2.76,-0.35 -40.19,21.05 -46.31,23.98z"/>
   <path class="fil4" d="M173.68 38.9c-2.38,3.02 -35.16,19.47 -40.76,22.58 -1.8,1 -4.35,3.07 -6.34,2.76 -1.21,-0.19 -21.21,-11.11 -23.56,-12.45l-20.7 -10.89c-1.82,-1.07 -1.86,-0.98 -1.11,-2.41 -2.78,0.36 -6.02,-0.85 -7.31,-3.09 3.37,-2.35 52.4,-28.15 53.1,-28.15 0.34,0 47.86,24.32 52.77,28.15 -0.68,1.22 -0.27,0.6 -1.36,1.47l-4.73 2.03zm-112.37 -3.98l-0.54 1.39c2.71,0.64 14.44,7.42 16.79,8.72l49.45 26.32 16.55 -8.62c9.76,-5.08 44.09,-24.27 50.64,-27 -0.74,8.21 -0.14,79.39 -0.13,95.05 0,2.31 0.04,4.65 0,6.95 -0.05,3.05 -0.41,3.39 0.26,6.3 0.04,0.17 0.1,0.4 0.19,0.59l0.07 -108.59 -58.62 -31.7c-12.07,-6.09 -5.31,-6.53 -24.95,3.72l-49.71 26.87z"/>
   <path class="fil0" d="M59.01 150.95c-1.3,1.66 -9.67,5.79 -12.42,6.94 1.05,2.27 -0.06,1.04 2.89,2.53 1.24,0.62 2.24,1.1 3.33,1.7 2.3,1.27 4.45,2.5 6.97,3.76l34.17 18.28c2.37,1.24 5.05,2.02 5.93,4.42 1.53,-0.11 8.32,-3.89 10.18,-4.78 2.02,-0.8 3.62,-2.14 5.54,-3.16 2.76,-1.47 4.48,-1.02 4.83,-4.52 -7.37,-2.86 -51,-27.58 -53.08,-28.14 -2.99,-0.79 -5.5,1.9 -8.34,2.97z"/>
   <path class="fil2" d="M81.21 38.49c6.12,-2.93 43.55,-24.33 46.31,-23.98 1.52,0.19 20.35,10.66 23.25,12.27 7.32,4.08 15.37,8.47 22.91,12.12l4.73 -2.03c1.09,-0.87 0.68,-0.25 1.36,-1.47 -4.91,-3.83 -52.43,-28.15 -52.77,-28.15 -0.7,0 -49.73,25.8 -53.1,28.15 1.29,2.24 4.53,3.45 7.31,3.09z"/>
   <path class="fil5" d="M110.06 183.8l-0.28 30.34c4.42,1.49 10.82,6.72 15.58,7.98 1.79,0.45 0.59,0.61 1.55,-0.37l0.12 -41.92 0.24 -0.19c-2.4,-0.57 -5.65,-1.96 -6.84,-3.52 -0.35,3.5 -2.07,3.05 -4.83,4.52 -1.92,1.02 -3.52,2.36 -5.54,3.16z"/>
   <path class="fil6" d="M127.52 253.8c-1.09,-1.55 -0.42,-2.84 -0.81,-5.33 -3.85,-2.46 -10.14,-5.65 -14.31,-7.72 -12.96,-6.4 -29.3,-16.3 -41.95,-22.46 -15.2,-7.4 -37.9,-21.14 -52.71,-28.14 -2.14,-1.02 -3.09,-0.75 -2.08,-2.47 -1.86,1.18 -1.31,-0.92 -1.27,6.55 8.9,3.86 19.42,10.18 28.46,15l71.15 38.17c2.48,1.32 4.51,2.52 6.96,3.84 1.41,0.76 5.27,3.46 6.56,2.56z"/>
   <path class="fil7" d="M126.71 248.47c0.39,2.49 -0.28,3.78 0.81,5.33l112.12 -59.56c0,-0.95 0.1,-2.61 0.03,-3.5 -0.09,-1 -0.11,-0.79 -0.29,-1.51l-0.36 -0.74 -97.74 52.61c-3.52,1.79 -10.44,6.36 -14.57,7.37z"/>
   <path class="fil5" d="M55.88 166.25c6.42,-1.92 2.76,4.69 3.81,20.76 3.56,2.87 14.35,7.98 18.5,9.92l0.09 -19.65 14.03 7.16 0.08 20.21 1.86 1.17 -0.14 -19.97 5.77 2.73c-0.88,-2.4 -3.56,-3.18 -5.93,-4.42l-34.17 -18.28c-2.52,-1.26 -4.67,-2.49 -6.97,-3.76 -1.09,-0.6 -2.09,-1.08 -3.33,-1.7 -2.95,-1.49 -1.84,-0.26 -2.89,-2.53l-0.43 2.16c1.49,0.84 3.45,1.99 5.2,2.86 4.16,2.07 3.45,0.84 4.52,3.34z"/>
   <path class="fil8" d="M99.88 188.58l-5.77 -2.73 0.14 19.97c2.12,1.54 12.74,7.16 15.53,8.32l0.28 -30.34c-1.86,0.89 -8.65,4.67 -10.18,4.78z"/>
   <polygon class="fil1" points="78.19,196.93 92.39,204.65 92.31,184.44 78.28,177.28 "/>
   <polygon class="fil0" points="66.39,68.28 79.75,75.27 79.9,60.49 66.43,53.74 "/>
   <path class="fil7" d="M133.67 96.75l13.47 -6.82 0.06 -14.42c-14.86,7.62 -13.7,5.27 -13.57,12.31 0.05,2.98 0,5.95 0.04,8.93z"/>
   <path class="fil0" d="M86.58 99.2c0,2.64 10.89,7.48 13.56,8.38l-0.09 -14.21 -13.46 -6.98 -0.01 12.81z"/>
   <path class="fil0" d="M86.69 144l13.29 6.84c0.4,-4.24 0.74,-10.38 -0.24,-14.4l-13.15 -6.81 0.1 14.37z"/>
   <path class="fil7" d="M154.25 136.44c-0.87,3.75 -0.63,10.47 -0.22,14.42l13.29 -6.86 0.11 -14.33 -13.18 6.77z"/>
   <path class="fil7" d="M133.77 104.12l-0.15 14.36c2.16,-0.71 12.16,-6.12 13.5,-7.28l0.12 -14.04 -13.47 6.96z"/>
   <polygon class="fil7" points="153.93,93.34 153.84,96.67 153.87,100.46 153.87,103.62 153.87,104.89 153.88,107.65 167.38,100.62 167.46,86.32 "/>
   <polygon class="fil7" points="153.96,114.91 153.88,123.84 153.82,129.27 167.51,122.21 167.44,108.08 "/>
   <polygon class="fil0" points="66.33,89.92 79.79,96.94 79.91,82.78 66.65,75.41 "/>
   <polygon class="fil7" points="153.77,71.78 153.89,85.89 167.39,79.06 167.44,64.78 "/>
   <path class="fil0" d="M106.88 154.85l13.38 6.86 -0.04 -13.87c-2.06,-1.86 -10.38,-6.21 -13.4,-7.33l0.06 14.34z"/>
   <polygon class="fil0" points="86.75,122.42 100.16,129.27 100.05,114.87 86.57,108.04 "/>
   <polygon class="fil7" points="133.76,125.69 133.63,140.09 147.06,133.21 147.22,118.84 "/>
   <polygon class="fil0" points="86.57,79.12 99.99,86.1 100.14,72.04 86.79,64.62 "/>
   <polygon class="fil7" points="174.07,82.55 174.11,96.71 187.57,89.93 187.59,75.58 "/>
   <path class="fil7" d="M174.22 104.13l-0.15 14.32c2.21,-0.75 12,-6.03 13.43,-7.25l0.08 -14.02 -13.36 6.95z"/>
   <polygon class="fil0" points="79.95,118.4 79.79,104.09 66.35,97.18 66.36,111.42 "/>
   <polygon class="fil0" points="120.32,118.45 120.16,104.1 106.8,97.2 106.79,111.42 "/>
   <polygon class="fil7" points="174.22,125.68 174.08,140.08 187.43,133.21 187.58,118.83 "/>
   <polygon class="fil0" points="66.53,133.13 79.91,140.06 79.8,125.71 66.36,118.8 "/>
   <polygon class="fil7" points="174.27,60.7 174.1,75.09 187.49,68.23 187.57,53.89 "/>
   <polygon class="fil0" points="106.94,133.17 120.28,140.04 120.17,125.74 106.81,118.81 "/>
   <polygon class="fil0" points="106.8,89.72 120.16,96.98 120.28,82.78 107.08,75.45 "/>
   <polygon class="fil7" points="133.66,147.84 133.67,161.71 147.14,154.82 147.24,140.59 "/>
  </g>
 </g>
</svg>
