<?xml version="1.0" encoding="UTF-8"?>
<!DOCTYPE svg PUBLIC "-//W3C//DTD SVG 1.1//EN" "http://www.w3.org/Graphics/SVG/1.1/DTD/svg11.dtd">
<!-- Creator: CorelDRAW 2021 (64-Bit) -->
<svg xmlns="http://www.w3.org/2000/svg" xml:space="preserve" width="2.5398mm" height="2.5398mm" version="1.1" style="shape-rendering:geometricPrecision; text-rendering:geometricPrecision; image-rendering:optimizeQuality; fill-rule:evenodd; clip-rule:evenodd"
viewBox="0 0 253.98 253.98"
 xmlns:xlink="http://www.w3.org/1999/xlink"
 xmlns:xodm="http://www.corel.com/coreldraw/odm/2003">
 <defs>
  <style type="text/css">
   <![CDATA[
    .fil0 {fill:#0098DA}
   ]]>
  </style>
 </defs>
 <g id="Layer_x0020_1">
  <metadata id="CorelCorpID_0Corel-Layer"/>
  <g id="_2749304085632">
   <path class="fil0" d="M208.02 201.59c-2.97,-22.06 -15.75,-37.56 -27.01,-47.07 -27.92,-23.56 -25.56,-3.04 -54.01,-3.04 -28.45,0 -26.09,-20.52 -54.01,3.04 -11.28,9.53 -24.01,24.99 -27.01,47.06l-5.41 -5.14c-11.19,-13.71 -19.23,-31.25 -22.64,-49.35 -12.28,-65.27 37.36,-130.96 109.07,-130.96 84.52,0 135.66,89.79 98.89,161.07 -2.81,5.45 -10.13,17.17 -14.36,21.59 -0.23,0.24 -0.93,0.95 -1.19,1.18 -1.92,1.65 0.53,0.07 -2.32,1.62zm-95.11 -200.66c-66.03,7.73 -120.53,65.91 -112.05,140.99 7.38,65.29 66.76,119.51 141.2,111.17 65.09,-7.29 119.46,-66.96 111.07,-141.01 -7.33,-64.72 -66.54,-119.77 -140.22,-111.15z"/>
   <path class="fil0" d="M118.92 40.91c-25.41,4.42 -47.35,27.73 -41.88,58.71 4.35,24.63 28.02,46.37 58.45,41.29 24.93,-4.17 46.61,-28.36 41.52,-58.56 -4.17,-24.66 -27.78,-46.71 -58.09,-41.44z"/>
  </g>
 </g>
</svg>
