<?xml version="1.0" encoding="UTF-8"?>
<!DOCTYPE svg PUBLIC "-//W3C//DTD SVG 1.1//EN" "http://www.w3.org/Graphics/SVG/1.1/DTD/svg11.dtd">
<!-- Creator: CorelDRAW 2021 (64-Bit) -->
<svg xmlns="http://www.w3.org/2000/svg" xml:space="preserve" width="2.5398mm" height="2.5398mm" version="1.1" style="shape-rendering:geometricPrecision; text-rendering:geometricPrecision; image-rendering:optimizeQuality; fill-rule:evenodd; clip-rule:evenodd"
viewBox="0 0 253.98 253.98"
 xmlns:xlink="http://www.w3.org/1999/xlink"
 xmlns:xodm="http://www.corel.com/coreldraw/odm/2003">
 <defs>
  <style type="text/css">
   <![CDATA[
    .fil0 {fill:#FEFEFE}
    .fil1 {fill:#0098DA}
   ]]>
  </style>
 </defs>
 <g id="Layer_x0020_1">
  <metadata id="CorelCorpID_0Corel-Layer"/>
  <ellipse class="fil0" cx="126.99" cy="126.99" rx="127" ry="126.99"/>
  <g id="_2931073145424">
   <path class="fil1" d="M202.62 196.62c-2.77,-20.59 -14.7,-35.06 -25.21,-43.93 -26.06,-21.99 -23.85,-2.84 -50.41,-2.84 -26.55,0 -24.35,-19.15 -50.4,2.84 -10.53,8.89 -22.41,23.32 -25.21,43.92l-5.05 -4.8c-10.45,-12.79 -17.95,-29.16 -21.13,-46.06 -11.46,-60.91 34.87,-122.22 101.79,-122.22 78.89,0 126.62,83.8 92.3,150.32 -2.62,5.09 -9.46,16.03 -13.4,20.15 -0.22,0.23 -0.87,0.89 -1.11,1.11 -1.8,1.54 0.49,0.06 -2.17,1.51zm-88.77 -187.28c-61.62,7.22 -112.49,61.52 -104.57,131.59 6.88,60.93 62.3,111.54 131.78,103.75 60.75,-6.8 111.49,-62.49 103.66,-131.6 -6.84,-60.4 -62.1,-111.78 -130.87,-103.74z"/>
   <path class="fil1" d="M119.46 46.66c-23.71,4.12 -44.19,25.88 -39.08,54.79 4.06,22.99 26.15,43.28 54.55,38.54 23.27,-3.9 43.5,-26.47 38.75,-54.66 -3.89,-23.01 -25.93,-43.59 -54.22,-38.67z"/>
  </g>
 </g>
</svg>
