<?xml version="1.0" encoding="UTF-8"?>
<!DOCTYPE svg PUBLIC "-//W3C//DTD SVG 1.1//EN" "http://www.w3.org/Graphics/SVG/1.1/DTD/svg11.dtd">
<!-- Creator: CorelDRAW 2021 (64-Bit) -->
<svg xmlns="http://www.w3.org/2000/svg" xml:space="preserve" width="2.5398mm" height="2.5398mm" version="1.1" style="shape-rendering:geometricPrecision; text-rendering:geometricPrecision; image-rendering:optimizeQuality; fill-rule:evenodd; clip-rule:evenodd"
viewBox="0 0 253.98 253.98"
 xmlns:xlink="http://www.w3.org/1999/xlink"
 xmlns:xodm="http://www.corel.com/coreldraw/odm/2003">
 <defs>
  <style type="text/css">
   <![CDATA[
    .fil0 {fill:#A53692}
   ]]>
  </style>
 </defs>
 <g id="Layer_x0020_1">
  <metadata id="CorelCorpID_0Corel-Layer"/>
  <g id="_2749206946560">
   <path class="fil0" d="M3.86 93.42c3.97,4.08 10.76,5.26 16.1,1.45 77.12,-54.98 134.16,-60.66 213.5,-0.43 6.45,4.9 13.2,2.85 17.14,-1.74 4.3,-5.02 4.7,-12.38 0.02,-17.27 -68.87,-61.32 -180.08,-68.37 -246.99,-0.25 -5.04,5.13 -4.71,13.18 0.23,18.24z"/>
   <path class="fil0" d="M36.78 130.96c5.97,7.03 13.09,5.61 19.52,0.45 45.7,-36.74 96.32,-35.95 141.12,-0.22 6.39,5.1 13.45,7.21 19.54,0.03 4.31,-5.09 5.17,-13.43 -2.47,-19.46 -56.64,-44.69 -119.73,-45.37 -174.71,-0.22 -6.18,5.08 -8.52,12.92 -3,19.42z"/>
   <path class="fil0" d="M83.96 173.67c5.62,-1.43 6.68,-5.8 16.25,-10.63 17.77,-8.98 35.8,-8.98 53.57,0 5,2.52 12.21,9.6 15.78,10.61 5.06,1.44 10.18,0.13 13.66,-4 2.65,-3.14 4.83,-7.95 2.45,-12.27 -18.56,-33.6 -97.16,-31.31 -115.75,-3.27 -3.07,4.63 -3.04,10.65 0.45,15.09 3.56,4.52 8.21,5.84 13.59,4.47z"/>
   <path class="fil0" d="M126 227.25c8.41,0 23.27,-16.18 25.75,-23.31 1.45,-4.18 0.68,-8.13 -1.59,-11.5 -9.34,-13.91 -34.19,-13.86 -45.29,-1.32 -2.64,2.99 -4.3,6.77 -2.87,12.05 1.63,6.05 17.75,24.08 24,24.08z"/>
  </g>
 </g>
</svg>
