<?xml version="1.0" encoding="UTF-8"?>
<!DOCTYPE svg PUBLIC "-//W3C//DTD SVG 1.1//EN" "http://www.w3.org/Graphics/SVG/1.1/DTD/svg11.dtd">
<!-- Creator: CorelDRAW 2021 (64-Bit) -->
<svg xmlns="http://www.w3.org/2000/svg" xml:space="preserve" width="2.5398mm" height="2.5398mm" version="1.1" style="shape-rendering:geometricPrecision; text-rendering:geometricPrecision; image-rendering:optimizeQuality; fill-rule:evenodd; clip-rule:evenodd"
viewBox="0 0 253.98 253.98"
 xmlns:xlink="http://www.w3.org/1999/xlink"
 xmlns:xodm="http://www.corel.com/coreldraw/odm/2003">
 <defs>
  <style type="text/css">
   <![CDATA[
    .fil1 {fill:#FEFEFE}
    .fil0 {fill:#848688}
   ]]>
  </style>
 </defs>
 <g id="Layer_x0020_1">
  <metadata id="CorelCorpID_0Corel-Layer"/>
  <g id="_2929170072752">
   <path class="fil0" d="M115.34 38.86c-26.13,1.57 -44.19,7.35 -64.23,17.63 -10.1,5.19 -15.81,10.14 -24.08,16.68 -2.56,2.03 -8.65,7.46 -10.24,9.92 -3.45,5.35 -1.38,11.96 2.36,15.09 8.53,7.13 15.96,-1.71 26.96,-8.61 27.58,-17.3 56.83,-32.17 92.69,-28.58 22.79,2.28 43.5,11.97 59.57,21.92l18.19 12.27c1.94,1.38 3.93,3.17 5.99,4.31 11.54,6.37 22.24,-10.3 12.7,-18.53 -7.09,-6.1 -14.36,-11.92 -23.5,-17.26 -28.53,-16.68 -61.28,-26.95 -96.41,-24.84z"/>
   <path class="fil0" d="M119.96 107.25c27.11,-2.34 48.5,8.24 68.07,22.73 6.21,4.59 13.96,8.81 19.64,-1.15 5.41,-9.48 -3.73,-15.48 -8.51,-18.95 -6,-4.36 -11.67,-7.9 -18.68,-11.78 -30.1,-16.66 -66.05,-19.08 -97.69,-5 -9.09,4.04 -31.65,16.63 -36.4,24.53 -4.88,8.12 1.82,17.7 9.99,17.15 5.38,-0.36 12.76,-7.62 18.93,-11.53 12.53,-7.95 26.55,-14.43 44.65,-16z"/>
   <path class="fil0" d="M120.82 153.39c11.26,-1.54 24.08,1.64 32.04,6.83 3.12,2.04 8.35,6.95 11.7,8 6.18,1.94 10.95,-1.58 13.24,-5.19 5.92,-9.34 -5.98,-18.52 -13.21,-22.6 -20.84,-11.76 -59.02,-11.24 -79.29,2.22 -22.59,14.99 -4.26,33.15 8.54,22.88 8.21,-6.58 15.37,-10.56 26.98,-12.14z"/>
   <path class="fil0" d="M104.51 192.16c0.6,6.98 14.51,20.85 19.55,22.84 7.46,2.97 20.24,-11.68 23.76,-17.89 6.48,-11.45 -6.78,-20.52 -17.49,-21.51 -11.68,-1.09 -26.75,5.61 -25.82,16.56z"/>
  </g>
  <path class="fil1" d="M149.08 189.87c0,6.88 -3.7,11.09 -8.49,15.85 -10.18,10.11 -14.48,12.71 -24.09,3.04 -9.64,-9.69 -19.65,-21.63 -2.25,-30.39 15.11,-7.61 34.83,0.87 34.83,11.5zm-62.37 -21.8c-6.49,0 -11.67,-3.98 -11.67,-8.63 0,-6.86 1.09,-9.08 6.98,-14.32 11.07,-9.84 30.82,-13.06 46.78,-13.06 11.99,0 22.75,2.66 31.37,6.15 6.58,2.66 18.83,10.53 18.83,19.71 0,5.1 -4.47,9.1 -8.65,10.14 -8.81,2.2 -12.18,-6.93 -24.67,-11.81 -15.54,-6.08 -32.31,-4.17 -46.27,4.74 -3.92,2.5 -7.81,7.08 -12.7,7.08zm-30.43 -33.47c-6.53,0 -11.16,-4.84 -11.16,-12.17 0,-9.94 25.05,-22.92 32.97,-26.88 8.01,-4.01 12.52,-5.94 21.7,-8.22 39.95,-9.92 72.75,2.57 103.05,25.45 12.55,9.47 2.98,21.82 -4.06,21.82 -5.3,0 -11.25,-5.37 -15.52,-8.32 -33.04,-22.9 -67.82,-27.37 -104.32,-5.54 -6.4,3.83 -8.91,6.24 -14.34,10.01 -1.63,1.13 -6.06,3.85 -8.32,3.85zm-30.43 -33.98c-5.89,0 -10.65,-6.23 -10.65,-11.66 0,-5.32 4.63,-8.94 7.48,-11.8 1.08,-1.09 1.22,-1.15 2.45,-2.11 1.18,-0.93 1.65,-1.47 2.75,-2.32 11.42,-8.9 15.78,-12.97 29.91,-19.28 11.65,-5.19 15.69,-7.05 28.71,-10.34 36.85,-9.3 71.4,-3.58 105.47,10.56 6.27,2.61 19.91,9.93 25.98,14.08 4.07,2.78 7.77,5.59 11.6,8.69 6.55,5.3 8.78,6.18 8.78,13.53 0,5.23 -5.04,10.65 -11.15,10.65 -4.49,0 -8.27,-3.97 -11.26,-5.99l-21.36 -14.13c-15.38,-9.22 -33,-16.51 -51.34,-19.15 -2.67,-0.39 -5.1,-0.8 -7.83,-0.8 -3.56,0.01 -5.13,-0.72 -8.62,-0.51 -21.78,1.3 -35.85,5.26 -55.45,15.06 -10.42,5.21 -23.93,12.83 -33.37,19.87 -2.59,1.92 -7.94,5.65 -12.1,5.65zm-25.86 -12.17c0,4.95 0.72,9.1 3.05,13.18 2.3,4.01 6.44,8.59 10.47,10.82 4.69,2.59 13.57,4.72 17.41,2.88 -3.24,13.91 1.19,25.49 14.19,31.95 7.17,3.56 10.33,2.47 15.73,2.02 -1.07,2.25 -1.01,7.23 -1.01,10.14 0,7.35 3.92,12.88 7.72,16.62 5.41,5.32 14.18,9.2 22.71,7.22 -0.1,4.43 -3.51,11.61 3.33,22.02 6.63,10.07 20.14,25.14 32.67,25.14 13.05,0 25.96,-13.44 32.97,-23.32 4.57,-6.46 5.06,-10.99 5.06,-18.77 0,-3.29 -1.93,-4.74 1.47,-5.12 5.35,-0.59 9.5,1.45 17.96,-4.87 5.99,-4.49 11,-12.91 11,-20.94 0,-3.4 -0.95,-4.72 -1.01,-7.61 7.06,0 9.15,0.51 15.22,-2.53 14.52,-7.28 17.44,-24.67 14.19,-31.45 8.99,0 15.4,-0.67 21.94,-6.96 10.75,-10.31 12.14,-26.44 2.28,-37.03 -7.89,-8.48 -32.3,-25.04 -42.69,-29.32 -2.98,-1.23 -5.13,-2.28 -8.07,-3.59 -19.64,-8.78 -46.7,-15.39 -68.8,-15.39 -23.97,0 -44.76,2.71 -67.01,11.59 -2.91,1.16 -4.96,2.26 -7.75,3.41 -3.34,1.38 -4.69,2.42 -7.73,3.93 -6.13,3.03 -22.13,13.55 -27.18,18.46l-8.88 7.86c-4.75,4.66 -9.24,11.7 -9.24,19.66z"/>
 </g>
</svg>
