<?xml version="1.0" encoding="UTF-8"?>
<!DOCTYPE svg PUBLIC "-//W3C//DTD SVG 1.1//EN" "http://www.w3.org/Graphics/SVG/1.1/DTD/svg11.dtd">
<!-- Creator: CorelDRAW 2021 (64-Bit) -->
<svg xmlns="http://www.w3.org/2000/svg" xml:space="preserve" width="5.0798mm" height="5.0798mm" version="1.1" style="shape-rendering:geometricPrecision; text-rendering:geometricPrecision; image-rendering:optimizeQuality; fill-rule:evenodd; clip-rule:evenodd"
viewBox="0 0 507.98 507.98"
 xmlns:xlink="http://www.w3.org/1999/xlink"
 xmlns:xodm="http://www.corel.com/coreldraw/odm/2003">
 <defs>
  <style type="text/css">
   <![CDATA[
    .fil0 {fill:#727376}
   ]]>
  </style>
   <clipPath id="id0">
    <rect x="5706.28" y="-4476.45" width="12700" height="12700"/>
   </clipPath>
 </defs>
 <g id="Layer_x0020_1">
  <metadata id="CorelCorpID_0Corel-Layer"/>
  <g id="_2749700184816">
   <path class="fil0" d="M7.73 186.86c7.94,8.15 21.53,10.52 32.21,2.9 154.22,-109.98 268.31,-121.34 426.99,-0.87 12.91,9.8 26.4,5.7 34.28,-3.49 8.59,-10.03 9.41,-24.76 0.03,-34.52 -137.72,-122.64 -360.15,-136.74 -493.98,-0.5 -10.06,10.24 -9.4,26.34 0.47,36.48z"/>
   <path class="fil0" d="M73.57 261.92c11.94,14.06 26.19,11.23 39.03,0.91 91.41,-73.47 192.65,-71.9 282.24,-0.44 12.79,10.2 26.92,14.42 39.08,0.05 8.62,-10.17 10.35,-26.85 -4.93,-38.91 -113.27,-89.37 -239.46,-90.74 -349.41,-0.44 -12.37,10.16 -17.06,25.83 -6.01,38.83z"/>
   <path class="fil0" d="M167.92 347.36c11.24,-2.86 13.36,-11.6 32.52,-21.28 35.54,-17.94 71.59,-17.94 107.13,0 10,5.06 24.41,19.21 31.55,21.24 10.13,2.88 20.38,0.24 27.33,-8.01 5.3,-6.29 9.66,-15.91 4.89,-24.54 -37.1,-67.21 -194.3,-62.62 -231.48,-6.55 -6.15,9.27 -6.08,21.32 0.9,30.18 7.12,9.04 16.41,11.69 27.16,8.96z"/>
   <path class="fil0" d="M252.02 454.51c16.81,0 46.52,-32.36 51.48,-46.61 2.92,-8.37 1.36,-16.27 -3.16,-23.01 -18.7,-27.83 -68.39,-27.71 -90.58,-2.63 -5.28,5.96 -8.6,13.53 -5.75,24.09 3.27,12.09 35.49,48.16 48.01,48.16z"/>
  </g>
  <g style="clip-path:url(#id0)">
   <image x="5706.28" y="-4476.45" width="12700" height="12700" xlink:href="wifidisabled_Images\wifidisabled_ImgID1.png"/>
  </g>
 </g>
</svg>
